# xmcd CD database file
#
# Track frame offsets:
#	150
#	14671
#	26462
#	39481
#	53703
#	64287
#	77666
#	87978
#	102030
#	115354
#	131873
#	146959
#	157730
#	166580
#	180252
#	194998
#	208036
#	219439
#
# Disc length: 3107 seconds
#
# Revision: 1
# Processed by: cddbd v1.5.1PL2 Copyright (c) Steve Scherf et al.
# Submitted via: CDex 1.51
#
DISCID=fb0c2112
DTITLE=Γιάννης Πουλόπουλος - Τα Τραγούδια μου CD 3
DYEAR=1998
DGENRE=Ελαφρά Λαϊκά
TTITLE0=Μην του μιλάτε του παιδιού
TTITLE1=Εκλαψα χθές
TTITLE2=Μιά φορά μονάχα φτάνει
TTITLE3=Κι' αν περπατώ
TTITLE4=Στην Φρεατύδα και στα Σεπόλια
TTITLE5=Παιδί μου ώρα σου καλή
TTITLE6=Μόνο
TTITLE7=Κάθε Μάρτη, κάθε Απρίλη, κάθε Μάη
TTITLE8=Ολα δικά σου
TTITLE9=Στρώσε το στρώμα σου για δυό
TTITLE10=Χαλάζι έφερε ψιχάλα
TTITLE11=Ενα φράγκο μάλαμα
TTITLE12=Στην φτωχειά μας την αυλή
TTITLE13=Οσα δεν βάζει ο λογισμός
TTITLE14=Διπλή ζωή
TTITLE15=Θα σου δώσω μιά
TTITLE16=Ν' ανθίσει το χαμόγελο
TTITLE17=Η πίκρα κλείδωσε τα χείλη
EXTD=YEAR: 1998
EXTT0=
EXTT1=
EXTT2=
EXTT3=
EXTT4=
EXTT5=
EXTT6=
EXTT7=
EXTT8=
EXTT9=
EXTT10=
EXTT11=
EXTT12=
EXTT13=
EXTT14=
EXTT15=
EXTT16=
EXTT17=
PLAYORDER=
